<svg xmlns="http://www.w3.org/2000/svg" fill-rule="evenodd" clip-rule="evenodd" image-rendering="optimizeQuality" shape-rendering="geometricPrecision" text-rendering="geometricPrecision" viewBox="0 0 244 512">
  <path fill="#2B2727" d="M147 59a39 39 0 0 0-39-39 39 39 0 0 0-38 39v271a83 83 0 1 0 77 1V59zm41 36V77h47a9 9 0 0 1 0 18h-47zm0 49v-18h47a9 9 0 0 1 0 18h-47zm0 49v-18h47a9 9 0 0 1 0 18h-47zm0 49v-18h47a9 9 0 0 1 0 18h-47zm0 49v-18h47a9 9 0 0 1 0 18h-47zm-21 23a107 107 0 1 1-117-1V59a58 58 0 0 1 100-42c11 11 17 26 17 42v255z"/>
  <path fill="#FFA300" d="M125 345V186H91v159a61 61 0 1 0 34 0z"/>
</svg>
