<svg xmlns="http://www.w3.org/2000/svg" viewBox="0 0 512 512">
  <path d="M31.4 193.2h306.8c53.6 0 97.1-40.9 97.1-91.1S391.8 11 338.2 11c-53.6 0-97.1 40.9-97.1 91.1 0 11.3 9.1 20.4 20.4 20.4 11.3 0 20.4-9.1 20.4-20.4 0-27.7 25.3-50.3 56.3-50.3 31 0 56.3 22.5 56.3 50.3 0 27.7-25.3 50.3-56.3 50.3H31.4c-11.3 0-20.4 9.1-20.4 20.4s9.1 20.4 20.4 20.4zm306.8 125.6H31.4c-11.3 0-20.4 9.1-20.4 20.4s9.1 20.4 20.4 20.4h306.8c31 0 56.3 22.6 56.3 50.3 0 27.7-25.3 50.3-56.3 50.3-11.3 0-20.4 9.1-20.4 20.4 0 11.3 9.1 20.4 20.4 20.4 53.6 0 97.1-40.9 97.1-91.1.1-50.2-43.5-91.1-97.1-91.1z"/>
  <path d="M480.6 177.3c-11.3 0-20.4 9.1-20.4 20.4 0 22.8-23.6 41.3-52.6 41.3H31.4c-11.3 0-20.4 9.1-20.4 20.4 0 11.3 9.1 20.4 20.4 20.4h376.2c51.5 0 93.4-36.8 93.4-82.1 0-11.3-9.1-20.4-20.4-20.4z"/>
</svg>
